<svg xmlns="http://www.w3.org/2000/svg" viewBox="0 0 612 612"><path d="M563.838 307.003c29.225-22.906 48.11-58.876 48.11-99.273 0-.194-.013-.383-.013-.575H612c0-39.689-18.839-75.006-48.018-97.564-20.859-16.257-46.834-25.97-75.2-25.97-27.061 0-53.742 8.771-72.299 23.587V89.632h-51.545V522.61h51.545v-17.914c18.557 14.879 45.285 23.684 72.392 23.684C556.863 528.38 612 473.124 612 405.085h-.052c-.024-39.914-18.902-75.447-48.11-98.082zm-3.435 98.152c0 39.227-32.203 71.141-71.788 71.141-28.405 0-53.011-16.551-64.664-40.504-4.478-9.344-7.808-20.096-7.808-31.037l.008-71.832h72.992c39.295.002 71.26 32.402 71.26 72.232zM416.149 281.379l-.043-73.798c0-39.174 33.04-72.175 72.602-72.175 23.47 0 44.337 11.461 57.436 28.962 8.953 12.107 14.26 27.119 14.26 43.362 0 40.609-31.966 73.649-71.262 73.649h-72.993zM84.534 389.778c0 48.195-37.112 85.949-84.534 85.949v51.545c37.112 0 71.004-14.322 96.688-40.33 25.529-25.854 39.391-60.363 39.391-97.164V137.054h136.079v387.619h51.544V85.508H84.534v304.27z"/></svg>