<svg xmlns="http://www.w3.org/2000/svg" viewBox="0 0 71.12 71.121"><path d="M47.135 6.909a.33.33 0 01.274-.515h5.497c.113 0 .22.06.279.157l4.643 7.472 4.641-7.472a.332.332 0 01.281-.157h5.414c.121 0 .232.067.291.174a.324.324 0 01-.016.339l-7.711 11.73a.333.333 0 01-.275.149h-5.251a.331.331 0 01-.274-.147l-7.793-11.73zm23.97 55.341l-1.64-5.578a.33.33 0 00-.481-.194c-1.473.842-4.09 1.844-8.202 1.844-9.462 0-13.697-7.374-13.697-14.682 0-8.683 5.406-14.516 13.451-14.516 3.979 0 6.592 1.001 8.728 1.94.088.04.192.038.281-.007a.334.334 0 00.174-.222l1.23-5.414a.333.333 0 00-.172-.367c-2.062-1.077-6.327-2.334-11.555-2.334-12.022 0-20.102 8.275-20.102 20.593 0 12.607 8.906 21.414 21.66 21.414 4.417 0 8.23-1.125 10.156-2.085a.332.332 0 00.169-.392zM16.666 35.791L38.948 7.922a.585.585 0 00.063-.649.639.639 0 00-.574-.341h-9.378a.666.666 0 00-.512.244L8.842 32.188V7.548a.63.63 0 00-.643-.616H.645c-.356 0-.645.276-.645.616v55.1a.63.63 0 00.645.617h7.554a.63.63 0 00.643-.617V42.244l2.043-.035 20.023 20.858a.66.66 0 00.471.198h8.944a.66.66 0 00.588-.36.599.599 0 00-.104-.663L16.666 35.791z"/></svg>