<?xml version="1.0" encoding="utf-8"?>
<!-- Svg Vector Icons : http://www.onlinewebfonts.com/icon -->
<!DOCTYPE svg PUBLIC "-//W3C//DTD SVG 1.1//EN" "http://www.w3.org/Graphics/SVG/1.1/DTD/svg11.dtd">
<svg version="1.1" xmlns="http://www.w3.org/2000/svg" xmlns:xlink="http://www.w3.org/1999/xlink" x="0px" y="0px" viewBox="0 0 1000 1000" enable-background="new 0 0 1000 1000" xml:space="preserve">
<metadata> Svg Vector Icons : http://www.onlinewebfonts.com/icon </metadata>
<g><g transform="translate(0.000000,511.000000) scale(0.100000,-0.100000)"><path d="M4707.9,5006.2C3642.3,4952,2621.2,4533.5,1768.6,3803C920,3076.4,319.3,1974,144.9,823c-44.6-288.7-58.1-850.6-31-1154.8c89.1-951.4,449.5-1854.3,1038.5-2608c164.7-207.3,670.4-701.4,881.6-860.3c835.1-625.8,1759.3-951.4,2799.8-990.1c1346.6-48.4,2646.7,457.3,3607.7,1402.8C9249.6-2591,9761.1-1533,9881.2-413.1c29.1,277.1,23.3,842.8-9.7,1119.9c-112.4,893.2-451.5,1714.7-1015.3,2441.3C8666.4,3394.2,8216.8,3834,7963,4022C6994.2,4742.7,5918.9,5066.3,4707.9,5006.2z M5663.1,3973.5c827.3-155,1534.6-523.1,2106.1-1096.7c740.2-742.1,1143.2-1712.8,1143.2-2761c0-1096.7-418.5-2077.1-1214.9-2840.5c-1499.7-1437.7-3863.5-1441.6-5386.4-9.7C865.7-1374.2,677.8,863.7,1873.3,2466.1c141.4,187.9,474.7,534.8,664.6,687.8c538.6,434,1180,716.9,1879.4,829.3C4702.1,4029.7,5395.8,4023.9,5663.1,3973.5z"/><path d="M2818.8,1941c-83.3-38.8-178.3-155-205.4-250c-15.5-60-21.3-527-21.3-1646.9c1.9-1488,3.9-1569.4,38.8-1646.9c100.8-228.6,372-311.9,592.9-182.1c65.9,38.8,98.8,75.6,139.5,160.8c54.3,108.5,54.3,118.2,65.9,560l9.7,449.5l257.7,246.1c215.1,205.4,263.5,242.2,282.9,220.9c23.3-25.2,780.8-1181.9,920.3-1408.6c91.1-145.3,215.1-248,333.3-275.1c189.9-46.5,383.6,7.8,478.6,131.8c46.5,60.1,52.3,85.3,52.3,215.1c0,133.7-7.7,158.9-69.7,273.2c-38.8,69.8-312,470.8-606.5,891.3L4549,443.3l114.3,108.5c906.8,856.4,922.3,873.8,922.3,1056c0,110.4-34.9,187.9-116.3,265.4c-73.6,69.7-141.4,93-279,93c-217,0-139.5,67.8-1309.8-1145.1l-441.8-455.3l-9.7,639.4c-9.7,635.5-9.7,641.3-58.1,736.3c-27.1,54.3-81.4,124-122.1,155c-67.8,54.3-91.1,60.1-222.8,65.9C2931.2,1964.3,2855.6,1956.5,2818.8,1941z"/><path d="M6244.4,941.2c-56.2-27.1-94.9-63.9-135.6-131.8l-54.2-93l-5.8-1114.1c-3.9-778.9,0-1135.4,15.5-1187.7c44.6-149.2,195.7-265.4,348.8-265.4c160.8,0,325.5,118.2,366.2,261.6c11.6,46.5,21.3,253.8,21.3,503.8c1.9,908.7,69.7,1243.9,271.3,1346.6c100.8,52.3,199.6,48.4,420.5-11.6c178.3-48.4,187.9-48.4,269.3-17.4c197.6,75.6,282.9,317.8,172.5,486.3c-125.9,191.8-542.5,310-813.8,232.5c-93-27.1-135.6-56.2-234.4-155c-120.1-120.1-122.1-120.1-133.7-71.7C6699.7,935.4,6459.5,1038.1,6244.4,941.2z"/></g></g>
</svg>