<svg xmlns="http://www.w3.org/2000/svg" viewBox="0 0 74.701 74.701"><path d="M74.674 16.881c0-.716-.585-1.299-1.301-1.299h-6.762c-.541 0-1.031.342-1.219.85l-7.317 19.875c-1.326 3.757-2.353 6.873-3.168 9.613-.786-2.765-1.771-5.879-3.031-9.613L44.871 16.45a1.298 1.298 0 00-1.225-.867h-6.762c-.714 0-1.298.581-1.3 1.296l-.095 41.061c0 .351.135.677.38.916.245.248.573.383.92.383l4.191.001v-.622l.015.621a1.3 1.3 0 001.275-1.561l-.006-26.354a293.07 293.07 0 002.346 7.236l6.675 19.557c.18.523.675.878 1.229.878h4.021c.546 0 1.037-.345 1.22-.856l7.217-19.916a293.876 293.876 0 002.838-8.108l-.008 27.825c0 .348.135.674.381.918.244.246.569.381.916.381H73.4c.349 0 .674-.135.918-.381.248-.245.383-.57.383-.918l-.027-41.059zM21.456 39.226c4.137-3.471 5.685-6.688 5.685-11.729 0-3.449-1.249-6.448-3.51-8.442-2.746-2.483-6.631-3.593-12.599-3.593L.58 15.496a.582.582 0 00-.58.581v42.47c0 .321.259.582.582.582h5.444a.58.58 0 00.58-.582V40.849h8.795l6.479 17.896c.083.23.301.385.546.385h5.634a.588.588 0 00.479-.25.591.591 0 00.066-.535l-7.149-19.119zm-9.858-3.671H6.607V20.824l4.8-.005c4.166.046 9.125 1.351 9.125 7.306 0 4.515-3.506 7.43-8.934 7.43z"/></svg>