<svg xmlns="http://www.w3.org/2000/svg" viewBox="0 0 330 330"><path d="M270 151.505V62.576c17.458 6.192 30 22.865 30 42.419 0 8.284 6.716 15 15 15 8.284 0 15-6.716 15-15 0-36.219-25.808-66.522-60-73.491v-16.5c0-8.284-6.716-15-15-15-8.284 0-15 6.716-15 15v16.5c-34.192 6.968-60 37.271-60 73.491s25.808 66.522 60 73.491v88.929c-17.459-6.192-30-22.865-30-42.42 0-8.284-6.716-15-15-15-8.284 0-15 6.716-15 15 0 36.219 25.808 66.523 60 73.491v16.509c0 8.284 6.716 15 15 15 8.284 0 15-6.716 15-15v-16.509c34.192-6.969 60-37.271 60-73.491s-25.808-66.522-60-73.49zm-60-46.509c0-19.555 12.541-36.228 30-42.419v84.839c-17.459-6.193-30-22.866-30-42.42zm60 162.419v-84.839c17.458 6.192 30 22.865 30 42.419 0 19.555-12.542 36.228-30 42.42zM75 59.996c24.813 0 45 20.187 45 45 0 8.284 6.716 15 15 15 8.284 0 15-6.716 15-15 0-41.355-33.645-75-75-75s-75 33.645-75 75 33.645 75 75 75c24.813 0 45 20.187 45 45s-20.187 45-45.001 45c-24.813 0-44.999-20.187-44.999-45 0-8.284-6.716-15-15-15-8.284 0-15 6.716-15 15 0 41.355 33.644 75 74.999 75 41.356 0 75.001-33.645 75.001-75s-33.645-75-75-75c-24.813 0-45-20.187-45-45s20.187-45 45-45z"/></svg>